HIERARCHY
ROOT Hips
{
  OFFSET -35.4901 99.2528 17.4586
  CHANNELS 6 Xposition Yposition Zposition Zrotation Xrotation Yrotation
  JOINT LeftUpLeg
  {
    OFFSET 8.64259 1.95398 -2.38835
    CHANNELS 3 Zrotation Xrotation Yrotation
    JOINT LeftLeg
    {
      OFFSET 43.7702 0 0
      CHANNELS 3 Zrotation Xrotation Yrotation
      JOINT LeftFoot
      {
        OFFSET 40.6238 0 0
        CHANNELS 3 Zrotation Xrotation Yrotation
        JOINT LeftToeBase
        {
          OFFSET 12.7242 0 0
          CHANNELS 3 Zrotation Xrotation Yrotation
          End Site
          {
            OFFSET 0 0 0
          }
        }
      }
    }
  }
  JOINT RightUpLeg
  {
    OFFSET -8.2249 1.95398 -2.59336
    CHANNELS 3 Zrotation Xrotation Yrotation
    JOINT RightLeg
    {
      OFFSET 43.5653 0 0
      CHANNELS 3 Zrotation Xrotation Yrotation
      JOINT RightFoot
      {
        OFFSET 40.6238 0 0
        CHANNELS 3 Zrotation Xrotation Yrotation
        JOINT RightToeBase
        {
          OFFSET 12.7242 0 0
          CHANNELS 3 Zrotation Xrotation Yrotation
          End Site
          {
            OFFSET 0 0 0
          }
        }
      }
    }
  }
  JOINT Spine
  {
    OFFSET 0.165834 0.87714 6.61349
    CHANNELS 3 Zrotation Xrotation Yrotation
    JOINT Spine1
    {
      OFFSET 7.38963 1.71661e-005 0
      CHANNELS 3 Zrotation Xrotation Yrotation
      JOINT Spine2
      {
        OFFSET 11.9445 1.14441e-005 0
        CHANNELS 3 Zrotation Xrotation Yrotation
        JOINT Spine3
        {
          OFFSET 14.7254 4.19617e-005 0
          CHANNELS 3 Zrotation Xrotation Yrotation
          JOINT Spine4
          {
            OFFSET 10.9679 0 0
            CHANNELS 3 Zrotation Xrotation Yrotation
            JOINT RightShoulder
            {
              OFFSET 2.46616 -1.6653 3.69651
              CHANNELS 3 Zrotation Xrotation Yrotation
              JOINT RightArm
              {
                OFFSET 13.0012 0 0
                CHANNELS 3 Zrotation Xrotation Yrotation
                JOINT RightForeArm
                {
                  OFFSET 28.7848 1.52588e-005 0
                  CHANNELS 3 Zrotation Xrotation Yrotation
                  JOINT RightHand
                  {
                    OFFSET 26.5688 1.52588e-005 0
                    CHANNELS 3 Zrotation Xrotation Yrotation
                    End Site
                    {
                      OFFSET 0 0 0
                    }
                  }
                }
              }
            }
            JOINT LeftShoulder
            {
              OFFSET 2.38034 -1.29275 -3.7523
              CHANNELS 3 Zrotation Xrotation Yrotation
              JOINT LeftArm
              {
                OFFSET 16.3182 6.10351e-005 0
                CHANNELS 3 Zrotation Xrotation Yrotation
                JOINT LeftForeArm
                {
                  OFFSET 27.0901 0 0
                  CHANNELS 3 Zrotation Xrotation Yrotation
                  JOINT LeftHand
                  {
                    OFFSET 24.5451 1.52588e-005 0
                    CHANNELS 3 Zrotation Xrotation Yrotation
                    End Site
                    {
                      OFFSET 0 0 0
                    }
                  }
                }
              }
            }
            JOINT Neck
            {
              OFFSET 5.0226 -0.0266342 0
              CHANNELS 3 Zrotation Xrotation Yrotation
              JOINT Head
              {
                OFFSET 6.69364 2.86102e-005 0
                CHANNELS 3 Zrotation Xrotation Yrotation
                End Site
                {
                  OFFSET 0 0 0
                }
              }
            }
          }
        }
      }
    }
  }
}
MOTION
Frames:	18
Frame Time:	0.0416667
-267.184 87.6051 -232.896 101.812 -44.7101 97.4614 -175.41 38.8518 87.9992 -38.5669 2.99041 -3.07886 65.0559 3.38537 3.44697 26.2817 2.87518 -4.39755 171.951 -5.65574 88.4662 -50.8484 -17.7704 -2.12285 92.2385 -16.123 -4.33049 29.6961 -2.44341 6.62143 1.26327 8.23986 -90.493 10.4066 2.29067 -1.18037 -1.26298 2.23651 -1.28008 -23.8134 2.53945 -0.436997 -3.8008 2.53947 -0.436993 90.2134 -24.589 -108.555 24.6836 4.38906 5.63329 -4.4503 -6.26652 -87.9 -40.3157 13.755 -42.2367 -83.7315 -46.7402 87.7908 -22.3295 25.6548 1.49131 -16.5321 -11.0594 -91.5372 -2.88712 -0.0447654 -14.5303 10.5735 -3.61584 0.840597 -10.4053 -3.61165 -1.71416 
-259.995 89.9647 -224.979 104.209 -42.6379 99.292 -177.83 28.3407 88.0848 -14.3223 6.38304 -2.06015 59.2 1.17714 0.29575 27.6993 0.818217 -1.3717 170.98 -15.1569 88.1235 -44.4194 -18.8246 -2.52466 75.3835 -7.69208 -5.88424 39.9762 -4.12717 13.8628 1.47153 8.23243 -90.5056 10.4249 2.69976 -1.24294 -1.244 2.64246 -1.36063 -23.8007 2.94842 -0.37349 -3.78802 2.94841 -0.373493 90.1402 -23.7 -109.117 28.0424 2.38236 6.79566 -4.07971 -4.72337 -84.8464 -39.1057 11.4748 -37.2848 -84.4125 -45.4685 86.5555 -22.6903 24.2535 3.90421 -15.6136 -11.083 -90.8411 0.784006 -0.261816 -11.3929 5.8621 -5.52048 -1.27775 -10.1177 -5.08331 -1.76084 
-253.293 90.9773 -217.13 102.688 -42.1991 99.1576 -179.121 25.5862 88.8624 -6.92027 5.59417 -1.13406 56.9361 0.636145 -1.95456 25.0901 -1.49282 2.65679 174.558 -16.9938 91.478 -46.0043 -21.5221 -4.25966 63.7368 -1.33124 1.78663 26.8142 -0.777515 1.91816 1.67786 7.80248 -90.5194 11.2899 3.0975 -1.33609 -0.378165 3.0357 -1.47122 -22.9424 3.35571 -0.342459 -2.92975 3.35571 -0.342461 89.9197 -23.4116 -109.735 30.1155 0.409218 8.77829 -2.89325 -3.72974 -81.6387 -30.5455 7.09128 -30.9362 -84.7881 -42.8457 85.581 -25.0367 25.7153 6.62903 -18.5885 -11.33 -91.2134 4.25319 -0.389807 -9.5153 -1.65952 -6.07471 -4.17314 -7.55978 -5.3958 -2.53898 
-246.67 90.1038 -210.127 102.175 -43.9725 99.9204 -177.145 26.7184 89.8884 -14.9434 7.29523 -1.8342 56.5367 0.0520725 -3.60884 26.5394 -1.80664 3.12687 176.578 -14.4186 91.8686 -54.7801 -23.4317 -4.63642 59.4696 0.224217 -1.58969 20.0441 -0.951672 3.16393 1.95159 7.59813 -90.5815 11.7055 3.6089 -1.53737 0.0384032 3.53776 -1.69486 -22.5358 3.90389 -0.380204 -2.52313 3.90387 -0.380205 90.5757 -23.0422 -108.464 32.1967 -1.41715 10.2647 -7.67246 -5.58497 -82.893 -15.1911 2.65939 -26.9953 -85.0321 -42.3606 85.108 -24.7448 26.4943 7.68267 -19.0111 -11.4755 -91.8891 2.83068 -0.331648 -9.68797 -2.56476 -6.62177 -5.6546 -8.51756 -5.8379 -1.55879 
-239.979 89.0311 -203.501 105.357 -45.2797 102.297 -174.937 28.3649 89.9434 -29.3406 15.622 -3.36733 50.5312 -3.92478 2.21129 25.8773 2.0914 -3.07911 175.009 -12.7946 89.0956 -63.8621 -11.3845 -3.62336 64.4244 -2.25729 -2.24236 15.8461 -1.53874 4.51792 1.83309 7.78746 -90.6103 11.3244 3.3635 -1.55091 -0.343296 3.29198 -1.69755 -22.9123 3.67391 -0.467156 -2.89961 3.67394 -0.467153 90.6844 -22.8999 -108.29 33.4493 -2.0227 8.46207 -6.47494 -3.66309 -82.4747 -8.08173 1.2901 -26.445 -85.2003 -44.0846 85.0961 -22.9748 24.7338 9.35617 -18.7789 -10.7736 -93.0246 2.71512 -0.296816 -9.01073 -1.35579 -5.40009 -5.39218 -9.26689 -4.66196 -0.276624 
-234.552 87.5091 -197.974 107.962 -44.7727 102.137 -172.173 31.2036 86.929 -48.3687 18.4741 -3.80832 64.7889 2.53707 6.38835 6.5184 -1.01463 2.711 172.562 -7.00435 84.7868 -75.2751 0.87358 -2.50143 72.8001 -6.32981 -0.994246 15.6357 -0.592368 2.67776 1.31739 8.01864 -90.301 10.8498 2.48422 -0.828045 -0.819007 2.44536 -0.936641 -23.3737 2.61816 -0.042648 -3.36108 2.61817 -0.0426469 90.1623 -25.626 -108.214 32.918 -2.27634 7.33982 -8.28523 -4.27008 -83.7839 -10.266 1.35577 -23.105 -84.9735 -44.9734 85.5914 -21.2311 24.9437 8.67349 -17.8002 -11.4334 -91.8437 -1.0875 -0.177588 -11.6375 -0.379584 -3.8616 -6.85742 -9.33386 -3.01274 1.77928 
-228.952 85.6342 -193.252 113.36 -42.4584 99.4024 -170.823 26.6564 79.6236 -58.3693 15.6083 -4.0882 68.8754 4.78179 7.98071 16.5353 0.781051 -0.0339437 171.909 -0.0937461 77.7185 -87.3049 1.77292 -2.93192 80.1555 -10.078 -2.39193 12.4203 -0.926118 3.41097 0.562299 8.74904 -89.5361 9.37216 1.32918 0.83129 -2.29839 1.36448 0.77199 -24.8338 1.01787 1.19229 -4.8212 1.01787 1.19229 90.3242 -28.0519 -106.861 33.0006 -0.997347 6.56609 -8.88046 -3.92335 -84.6807 -7.54645 0.94925 -23.852 -84.994 -45.5912 85.6471 -17.2201 25.1345 1.77675 -19.5306 -12.0125 -88.9036 -1.69925 -0.139013 -12.695 3.42015 -2.90475 -7.94936 -11.5307 -1.68182 1.92304 
-223.631 84.2872 -188.676 117.307 -39.936 98.4999 -171.49 21.2325 76.0458 -65.8278 13.4683 -3.77829 75.7044 8.29322 7.73515 18.1624 -0.502386 1.54973 174.537 8.12046 73.7182 -94.2996 -2.4318 -2.927 82.6385 -11.8977 -4.72037 13.032 -1.59667 4.67982 -0.268542 9.30772 -89.0958 8.25502 -0.138112 1.79168 -3.41718 -0.059148 1.79602 -25.9435 -0.670141 1.66741 -5.93083 -0.670138 1.6674 90.6044 -28.3808 -106.165 34.0611 -0.350416 5.94986 -4.91144 -3.5468 -84.7431 -10.6353 1.56872 -23.4486 -85.7453 -44.6111 84.3 -16.2921 22.6821 -3.3382 -18.6807 -12.1947 -85.6679 -2.55253 -0.0787428 -13.3249 4.81446 -1.3827 -9.56969 -11.0185 0.134892 3.0377 
-219.522 83.0801 -183.837 112.679 -47.7792 98.9177 -166.337 23.6946 80.2033 -71.8227 11.2934 -4.85625 83.2767 11.557 5.92115 20.4092 -0.309964 1.14115 -175.535 24.5057 78.4697 -94.8505 1.60665 -3.13062 86.4531 -13.4928 -2.34565 11.7752 -1.47279 4.48148 -0.0326145 8.81435 -89.3905 9.24258 0.2082 1.19237 -2.42889 0.260468 1.18205 -24.9597 -0.159751 1.19983 -4.94704 -0.159766 1.19982 90.4256 -28.5574 -106.461 33.6857 0.138199 5.72788 -3.18345 -3.63046 -85.1302 -13.5428 1.86825 -21.4908 -86.131 -44.5229 83.6666 -14.1232 21.6808 -8.20288 -17.3311 -13.0703 -81.7747 -6.59263 0.270515 -14.145 2.39067 0.830206 -8.80805 -9.04596 2.0241 3.45444 
-215.008 82.9202 -178.652 111.309 -51.4673 101.184 -164.192 20.8648 84.4925 -74.3438 7.97366 -4.98043 90.1714 13.7525 2.44013 22.0226 0.656913 -0.404076 -172.963 35.5796 83.155 -88.1544 1.82295 -3.39457 84.3739 -12.7381 -2.08342 11.7625 0.0646528 1.69133 -0.168832 8.67173 -89.8178 9.52915 -0.254492 0.379168 -2.14187 -0.23752 0.38999 -24.6766 -0.356679 0.285151 -4.66395 -0.356643 0.285157 90.785 -28.0534 -105.922 33.5854 0.163095 6.00552 -3.16329 -3.78871 -86.7258 -11.812 1.5794 -21.1346 -86.0328 -44.3369 83.7911 -10.2753 21.8106 -13.4063 -19.6906 -13.7744 -79.1265 -7.15998 0.367829 -15.9843 1.54214 2.6232 -6.72836 -11.0513 3.35954 3.41078 
-209.989 83.432 -173.817 112.807 -51.6568 104.024 -165.28 13.8248 86.2158 -73.2907 2.88363 -4.5782 95.5007 14.9518 -1.24089 24.3283 0.736671 -0.760209 -175.77 40.3079 86.3431 -75.8123 -0.699141 -3.31136 75.5128 -8.75324 -4.22214 13.8972 -0.445702 2.48665 -0.613724 8.84443 -90.1417 9.18468 -1.28734 -0.186413 -2.48563 -1.29428 -0.129579 -25.0252 -1.17181 -0.564752 -5.01252 -1.1718 -0.564752 91.2329 -27.3081 -105.284 33.5532 -0.560149 6.55032 -4.46962 -3.79495 -87.2229 -17.3035 2.05846 -19.1913 -86.6246 -42.5274 82.5135 -8.40651 21.549 -17.8478 -15.0651 -13.4908 -74.6281 -12.8635 1.84184 -22.818 -0.207413 3.65851 -6.7098 -11.3499 4.13141 5.34735 
-205.372 84.2686 -168.683 115.27 -52.1798 109.689 -165.453 6.93599 90.8534 -71.163 1.04304 -3.7036 97.1001 14.9987 -2.61131 29.5588 -0.429739 0.698246 178.747 39.1826 92.9731 -56.7543 -0.0272363 -1.28862 64.2804 -3.38699 -2.38919 15.6245 -1.09572 3.65052 -0.918213 9.19696 -90.811 8.4676 -2.19052 -1.47196 -3.20219 -2.25317 -1.37411 -25.7403 -1.64696 -2.06221 -5.72768 -1.64694 -2.06221 92.0234 -25.5828 -104.261 32.6752 -2.28188 5.35669 -5.6024 -5.2347 -88.4458 -21.6851 1.91638 -15.7716 -86.8364 -42.7049 82.1991 -4.12938 22.5588 -23.9638 -20.0266 -15.8463 -72.0139 -8.94429 1.00295 -20.9976 -1.10077 4.55248 -3.89877 -10.9576 4.61084 5.43232 
-199.949 85.0281 -163.665 115.797 -52.7312 111.292 -165.751 1.49459 91.8839 -69.3812 1.87737 -3.21372 92.2687 12.6012 -3.23953 36.6001 -0.156433 -0.512489 174.908 33.7498 95.4544 -34.6871 -4.83569 1.15096 56.671 0.038238 1.12268 17.5469 -1.10629 3.59039 -1.24173 9.46295 -91.2183 7.91335 -3.01101 -2.24093 -3.75581 -3.10668 -2.10621 -26.2922 -2.19863 -3.04202 -6.27958 -2.19862 -3.04202 92.2155 -24.8956 -104.105 30.789 -2.1788 4.17971 -2.56115 0.297074 -88.8416 -18.94 1.42323 -13.5957 -86.9697 -41.4251 81.7313 -1.5329 23.0231 -30.6288 -20.9621 -17.0792 -69.445 -13.2503 1.52551 -21.2208 -1.57546 4.74285 -1.83629 -10.5561 4.52871 5.66191 
-193.816 85.0619 -158.732 113.978 -53.6678 107.995 -166.146 -2.03487 90.1345 -68.4659 5.6301 -3.54794 83.5106 9.61662 -0.655672 44.7171 1.99916 -6.71468 172.873 30.648 94.6365 -21.6622 -5.98286 1.93237 55.7262 0.447068 1.40373 16.9707 -1.47134 4.3601 -1.55977 9.4291 -91.2811 7.97312 -3.67381 -2.32564 -3.69443 -3.77259 -2.16159 -26.2398 -2.80537 -3.32218 -6.22713 -2.80536 -3.32217 91.8575 -25.2359 -104.75 28.423 -2.58442 3.98443 7.6505 -0.868024 -85.0536 -26.3433 2.9694 -16.8239 -87.613 -40.4204 80.4491 -0.934089 19.6689 -35.7689 -16.1975 -16.2286 -63.7068 -8.57949 0.825561 -21.1401 -5.05106 4.20122 -0.703721 -7.77705 3.94946 6.13449 
-187.91 84.3615 -154.273 110.877 -54.8658 102.455 -165.69 -0.585322 86.5409 -72.2534 11.4082 -3.41561 71.4497 5.10785 2.20393 41.6625 2.36151 -7.0348 171.077 34.4135 92.1966 -28.3629 -1.77787 2.52965 56.3879 0.359295 -0.176754 15.6577 -0.588194 2.67624 -1.67895 9.20554 -91.1882 8.42415 -3.87474 -2.11137 -3.24245 -3.96391 -1.93864 -25.7956 -3.06128 -3.1785 -5.7829 -3.06129 -3.17851 91.6506 -26.7289 -104.63 26.5261 0.548163 4.1499 1.85534 -1.99318 -85.2377 -24.2169 2.05401 -14.3491 -88.0075 -38.1612 79.2588 -2.01751 17.221 -41.2267 -11.3085 -14.4936 -57.9208 -8.00337 0.718366 -20.7582 -7.95815 3.09476 -0.613966 -6.62468 2.92053 5.48265 
-182.611 82.0873 -150.494 108.483 -56.0864 97.3542 -163.173 4.70625 83.2708 -81.6037 15.379 -2.16812 61.2352 0.714642 1.62066 31.7799 -0.896312 1.32531 170.568 44.7592 88.8371 -46.7537 -9.05384 2.53486 58.6485 0.577421 -3.03038 0.358915 -0.645546 3.41522 -1.66835 9.16772 -91.0854 8.50427 -3.80885 -1.90805 -3.16225 -3.88912 -1.7384 -25.7176 -3.05947 -2.9649 -5.70494 -3.05947 -2.9649 91.1871 -27.6317 -105.258 24.8093 6.42693 4.06881 1.17321 -4.74526 -84.1575 -26.7428 2.26591 -14.5288 -87.9789 -36.4422 78.9045 -3.59253 14.0528 -48.281 -6.51016 -12.0151 -52.2374 -9.02723 0.97755 -22.5293 -7.41134 1.68421 0.00803578 -6.7085 1.52685 3.77094 
-178.165 79.1923 -147.414 109.659 -57.7985 97.6826 -158.695 12.7033 81.7677 -94.8218 13.9336 0.419747 67.5796 3.545 3.19065 32.4029 0.155989 -0.640223 172.709 50.6437 87.1763 -61.9865 -9.62428 0.871352 64.6453 -2.96646 -3.36617 4.52759 -1.6817 4.95104 -1.46192 9.57315 -91.1558 7.69185 -3.42132 -2.10371 -3.97606 -3.51058 -1.95101 -26.5211 -2.63116 -3.03468 -6.50848 -2.63116 -3.03469 89.1578 -29.2853 -108.718 20.8796 14.1352 4.70539 2.87239 -6.72116 -84.1813 -26.3451 1.96542 -13.3417 -88.2762 -35.7177 78.1942 -4.43596 10.8338 -55.2023 -5.7918 -11.8411 -48.5538 -10.5886 1.32029 -23.8244 -5.12736 0.129772 -0.192701 -5.01583 0.0909825 2.13452 
-174.539 76.9726 -145.023 113.311 -60.2645 103.68 -155.492 25.234 81.4742 -105.203 8.03056 2.91421 71.357 5.35953 3.49559 28.8838 2.92152 -4.95466 172.283 51.9607 89.5686 -70.6685 -10.919 0.901199 68.4228 -4.81029 -4.2723 3.85722 -1.36514 4.4668 -1.00912 10.4273 -91.6478 5.97018 -2.70837 -3.16061 -5.7015 -2.84479 -3.03843 -28.2158 -1.63408 -3.82767 -8.20315 -1.63408 -3.82768 89.29 -28.319 -108.861 19.3919 19.2368 0.440651 6.01885 -5.97763 -81.128 -26.2964 2.44637 -15.1573 -89.1542 -36.4778 76.8422 -5.08196 5.70525 -62.2262 -1.02602 -8.09081 -47.3457 -11.523 1.43088 -23.1605 1.16998 -1.53367 -0.265087 -4.89916 -1.50923 1.3287 
